<?xml version="1.0" encoding="utf-8"?>
<!-- Svg Vector Icons : http://www.onlinewebfonts.com/icon -->
<!DOCTYPE svg PUBLIC "-//W3C//DTD SVG 1.1//EN" "http://www.w3.org/Graphics/SVG/1.1/DTD/svg11.dtd">
<svg width="15px" height="15px" version="1.1" xmlns="http://www.w3.org/2000/svg" xmlns:xlink="http://www.w3.org/1999/xlink" x="0px" y="0px" viewBox="0 0 1000 1000" enable-background="new 0 0 1000 1000" xml:space="preserve">
<metadata> Svg Vector Icons : http://www.onlinewebfonts.com/icon </metadata>
<g><g transform="translate(0.000000,119.000000) scale(0.100000,-0.100000)"><path d="M601.4,263L100-238.4l1821-1785.8L3742-3810L1921-5595.8L100-7381.6L601.4-7883l501.5-501.4l2287.2,2287.2L5677.4-3810L3390.1-1522.8L1102.9,764.5L601.4,263z" fill="white"/><path d="M4824,263l-501.4-501.4l1820.9-1785.8L7964.6-3810L6143.5-5595.8L4322.6-7381.6L4824-7883l501.5-501.4l2287.2,2287.2L9900-3810L7612.8-1522.8L5325.5,764.5L4824,263z" fill="white"/></g></g>
</svg>