<svg width="11" height="8" viewBox="0 0 11 8" fill="none" xmlns="http://www.w3.org/2000/svg">
<path d="M5.5069 4.42487L1.75376 7.8238C1.49436 8.05873 1.07489 8.05873 0.818239 7.8238L0.194556 7.25898C-0.064852 7.02405 -0.064852 6.64417 0.194556 6.41175L2.85487 4.0025L0.194556 1.59325C-0.064852 1.35833 -0.064852 0.978444 0.194556 0.746017L0.815479 0.176195C1.07489 -0.0587316 1.49436 -0.0587316 1.751 0.176195L5.50414 3.57513C5.76631 3.81006 5.76631 4.18994 5.5069 4.42487ZM10.8054 3.57513L7.05231 0.176195C6.7929 -0.0587316 6.37343 -0.0587316 6.11678 0.176195L5.4931 0.741018C5.23369 0.975945 5.23369 1.35583 5.4931 1.58825L8.15341 3.9975L5.4931 6.40675C5.23369 6.64167 5.23369 7.02156 5.4931 7.25398L6.11678 7.81881C6.37619 8.05373 6.79566 8.05373 7.05231 7.81881L10.8054 4.41987C11.0649 4.18994 11.0649 3.81006 10.8054 3.57513Z" fill="#DE253A"/>
</svg>
